grf
version=1
nRows=31
nColumns=19
inDegrees=yes
endheader
time	ground_force_1_vx	ground_force_1_vy	ground_force_1_vz	ground_force_1_px	ground_force_1_py	ground_force_1_pz	ground_moment_1_mx	ground_moment_1_my	ground_moment_1_mz	ground_force_2_vx	ground_force_2_vy	ground_force_2_vz	ground_force_2_px	ground_force_2_py	ground_force_2_pz	ground_moment_2_mx	ground_moment_2_my	ground_moment_2_mz
4.912000	21.919637	1365.899610	-506.426636	0.171510	0.000000	-0.724460	-0.000000	4.997399	0.000000	26.861413	1280.758366	506.480659	0.169577	0.000000	-1.562575	0.000000	-9.178386	-0.000000
4.913000	22.056640	1366.156510	-506.781219	0.171872	0.000000	-0.724575	0.000000	4.992743	0.000000	27.102325	1280.559492	506.629602	0.169008	0.000000	-1.562134	0.000000	-9.161523	-0.000000
4.914000	22.171027	1366.455046	-507.140608	0.171212	0.000000	-0.724855	0.000000	4.986940	0.000000	27.343667	1280.362561	506.785179	0.169399	0.000000	-1.561982	0.000000	-9.143837	-0.000000
4.915000	22.260371	1366.794322	-507.505483	0.169586	0.000000	-0.722675	0.000000	4.980046	0.000000	27.585056	1280.167952	506.947414	0.168715	0.000000	-1.562443	0.000000	-9.125391	-0.000000
4.916000	22.322618	1367.172529	-507.876446	0.171258	0.000000	-0.724223	0.000000	4.972151	0.000000	27.825925	1279.976322	507.116034	0.168617	0.000000	-1.562408	0.000000	-9.106302	0.000000
4.917000	22.356220	1367.586591	-508.253996	0.171016	0.000000	-0.724780	0.000000	4.963371	0.000000	28.065617	1279.788090	507.290517	0.167684	0.000000	-1.559139	0.000000	-9.086736	0.000000
4.918000	22.360146	1368.032449	-508.638498	0.170794	0.000000	-0.724192	0.000000	4.953816	0.000000	28.303414	1279.603110	507.470050	0.169091	0.000000	-1.563973	0.000000	-9.066922	0.000000
4.919000	22.333830	1368.505610	-509.030141	0.170395	0.000000	-0.724759	0.000000	4.943569	0.000000	28.538566	1279.420695	507.653481	0.168502	0.000000	-1.561838	0.000000	-9.047133	0.000000
4.920000	22.277132	1369.001552	-509.428782	0.169924	0.000000	-0.724647	0.000000	4.932697	0.000000	28.770413	1279.240030	507.839397	0.168522	0.000000	-1.561952	0.000000	-9.027631	0.000000
4.921000	22.190344	1369.516093	-509.833781	0.170167	0.000000	-0.724497	0.000000	4.921257	0.000000	28.998540	1279.060643	508.026286	0.168099	0.000000	-1.561419	0.000000	-9.008617	0.000000
4.922000	22.074209	1370.045552	-510.244023	0.170202	0.000000	-0.725047	0.000000	4.909300	0.000000	29.222817	1278.882864	508.212643	0.168376	0.000000	-1.561664	0.000000	-8.990235	0.000000
4.923000	21.929895	1370.586787	-510.658136	0.170403	0.000000	-0.725749	0.000000	4.896882	0.000000	29.443334	1278.708198	508.397008	0.168670	0.000000	-1.562472	0.000000	-8.972588	0.000000
4.924000	21.758912	1371.137218	-511.074693	0.169599	0.000000	-0.723414	0.000000	4.884079	0.000000	29.660315	1278.539092	508.578032	0.168623	0.000000	-1.563067	0.000000	-8.955728	0.000000
4.925000	21.563030	1371.694249	-511.492286	0.170364	0.000000	-0.724381	0.000000	4.870999	0.000000	29.874005	1278.378038	508.754564	0.167831	0.000000	-1.561349	0.000000	-8.939661	0.000000
4.926000	21.344199	1372.254416	-511.909554	0.170371	0.000000	-0.725486	0.000000	4.857789	0.000000	30.084621	1278.227047	508.925723	0.167821	0.000000	-1.561352	0.000000	-8.924371	0.000000
4.927000	21.104487	1372.813345	-512.325229	0.170296	0.000000	-0.723625	0.000000	4.844603	0.000000	30.292391	1278.087946	509.090912	0.167591	0.000000	-1.561642	0.000000	-8.909835	0.000000
4.928000	20.845995	1373.366354	-512.738153	0.170417	0.000000	-0.726585	0.000000	4.831559	0.000000	30.497610	1277.962661	509.249826	0.166987	0.000000	-1.562857	0.000000	-8.896032	0.000000
4.929000	20.570757	1373.909033	-513.147318	0.170384	0.000000	-0.724890	0.000000	4.818720	0.000000	30.700716	1277.852895	509.402392	0.166999	0.000000	-1.560435	0.000000	-8.882963	0.000000
4.930000	20.280687	1374.437547	-513.551932	0.170015	0.000000	-0.724857	0.000000	4.806097	0.000000	30.902353	1277.759738	509.548690	0.167155	0.000000	-1.561248	0.000000	-8.870701	0.000000
4.931000	19.977616	1374.948469	-513.951446	0.170265	0.000000	-0.724618	0.000000	4.793644	0.000000	31.103267	1277.683690	509.688891	0.167512	0.000000	-1.562660	0.000000	-8.859404	0.000000
4.932000	19.663320	1375.438483	-514.345520	0.169426	0.000000	-0.724733	0.000000	4.781275	0.000000	31.304138	1277.624698	509.823216	0.167162	0.000000	-1.561491	0.000000	-8.849267	0.000000
4.933000	19.339508	1375.904341	-514.733995	0.170184	0.000000	-0.724468	0.000000	4.768877	0.000000	31.505546	1277.582046	509.951906	0.166609	0.000000	-1.561541	0.000000	-8.840471	0.000000
4.934000	19.007816	1376.342984	-515.116901	0.169215	0.000000	-0.724299	0.000000	4.756324	0.000000	31.708037	1277.554621	510.075216	0.166891	0.000000	-1.561604	0.000000	-8.833146	0.000000
4.935000	18.669834	1376.751805	-515.494488	0.170219	0.000000	-0.724795	0.000000	4.743482	0.000000	31.912214	1277.541318	510.193383	0.166116	0.000000	-1.560747	0.000000	-8.827360	0.000000
4.936000	18.327135	1377.128981	-515.867210	0.168983	0.000000	-0.726833	0.000000	4.730212	0.000000	32.118719	1277.540982	510.306543	0.166131	0.000000	-1.560464	-0.000000	-8.823101	0.000000
4.937000	17.981246	1377.473636	-516.235607	0.169226	0.000000	-0.725071	0.000000	4.716362	0.000000	32.328022	1277.552118	510.414670	0.166090	0.000000	-1.560752	-0.000000	-8.820292	0.000000
4.938000	17.633513	1377.785621	-516.600209	0.169451	0.000000	-0.724505	0.000000	4.701788	0.000000	32.540257	1277.573063	510.517605	0.166472	0.000000	-1.560350	-0.000000	-8.818805	-0.000000
4.939000	17.284995	1378.064957	-516.961541	0.169635	0.000000	-0.725246	0.000000	4.686357	0.000000	32.755344	1277.602637	510.615122	0.165827	0.000000	-1.560384	-0.000000	-8.818468	-0.000000
4.940000	16.936546	1378.311304	-517.320104	0.168992	0.000000	-0.724050	0.000000	4.669927	0.000000	32.973160	1277.640494	510.706914	0.165507	0.000000	-1.560120	-0.000000	-8.819065	-0.000000
4.941000	16.588941	1378.523813	-517.676355	0.168878	0.000000	-0.725686	0.000000	4.652338	0.000000	33.193538	1277.686776	510.792543	0.165850	0.000000	-1.559391	-0.000000	-8.820347	-0.000000
4.942000	16.242881	1378.701780	-518.030803	0.168262	0.000000	-0.727713	0.000000	4.633464	0.000000	33.416112	1277.741751	510.871490	0.165049	0.000000	-1.561002	-0.000000	-8.822069	-0.000000
